<mxfile host="Electron" agent="Mozilla/5.0 (X11; Linux x86_64) AppleWebKit/537.36 (KHTML, like Gecko) draw.io/26.0.9 Chrome/128.0.6613.186 Electron/32.2.5 Safari/537.36" version="26.0.9">
  <diagram name="Page-1" id="16e2658f-23c8-b752-8be9-c03fbebb8bbe">
    <mxGraphModel dx="1368" dy="838" grid="0" gridSize="10" guides="1" tooltips="1" connect="1" arrows="1" fold="1" page="1" pageScale="1" pageWidth="1100" pageHeight="850" background="none" math="0" shadow="0">
      <root>
        <mxCell id="0" />
        <mxCell id="1" parent="0" />
        <mxCell id="6d250d948d6a1778-12" style="edgeStyle=orthogonalEdgeStyle;rounded=0;html=1;entryX=1;entryY=0;entryPerimeter=0;labelBackgroundColor=none;startArrow=none;startFill=0;startSize=5;endArrow=none;endFill=0;endSize=5;jettySize=auto;orthogonalLoop=1;strokeWidth=2;fontFamily=Verdana;fontSize=16;entryDx=0;entryDy=0;" parent="1" target="WZVstMQva_9MUPvKd7M6-1" edge="1">
          <mxGeometry relative="1" as="geometry">
            <mxPoint x="470" y="260" as="sourcePoint" />
            <mxPoint x="400" y="307" as="targetPoint" />
          </mxGeometry>
        </mxCell>
        <mxCell id="6d250d948d6a1778-9" style="edgeStyle=orthogonalEdgeStyle;rounded=0;html=1;exitX=1;exitY=1;exitPerimeter=0;entryX=1;entryY=0;entryPerimeter=0;labelBackgroundColor=none;startArrow=none;startFill=0;startSize=5;endArrow=none;endFill=0;endSize=5;jettySize=auto;orthogonalLoop=1;strokeWidth=2;fontFamily=Verdana;fontSize=16;entryDx=0;entryDy=0;exitDx=0;exitDy=0;" parent="1" source="WZVstMQva_9MUPvKd7M6-12" target="WZVstMQva_9MUPvKd7M6-6" edge="1">
          <mxGeometry relative="1" as="geometry">
            <mxPoint x="615" y="260" as="sourcePoint" />
            <mxPoint x="615" y="330" as="targetPoint" />
          </mxGeometry>
        </mxCell>
        <mxCell id="6d250d948d6a1778-14" style="edgeStyle=orthogonalEdgeStyle;rounded=0;html=1;exitX=1;exitY=1;exitPerimeter=0;entryX=1;entryY=1;entryPerimeter=0;labelBackgroundColor=none;startArrow=none;startFill=0;startSize=5;endArrow=none;endFill=0;endSize=5;jettySize=auto;orthogonalLoop=1;strokeWidth=2;fontFamily=Verdana;fontSize=16;exitDx=0;exitDy=0;entryDx=0;entryDy=0;" parent="1" source="WZVstMQva_9MUPvKd7M6-6" target="WZVstMQva_9MUPvKd7M6-1" edge="1">
          <mxGeometry relative="1" as="geometry">
            <Array as="points">
              <mxPoint x="615" y="427" />
              <mxPoint x="400" y="427" />
            </Array>
            <mxPoint x="640" y="387" as="sourcePoint" />
            <mxPoint x="230" y="327" as="targetPoint" />
          </mxGeometry>
        </mxCell>
        <mxCell id="WZVstMQva_9MUPvKd7M6-1" value="" style="verticalLabelPosition=bottom;shadow=0;dashed=0;align=center;html=1;verticalAlign=top;shape=mxgraph.electrical.transistors.nmos_bulk;pointerEvents=1;strokeWidth=2;fontSize=16;" parent="1" vertex="1">
          <mxGeometry x="340" y="277" width="60" height="120" as="geometry" />
        </mxCell>
        <mxCell id="WZVstMQva_9MUPvKd7M6-27" style="edgeStyle=none;curved=1;rounded=0;orthogonalLoop=1;jettySize=auto;html=1;exitX=1;exitY=0;exitDx=0;exitDy=0;exitPerimeter=0;fontSize=16;startSize=8;endSize=8;endArrow=none;startFill=0;strokeWidth=2;" parent="1" source="WZVstMQva_9MUPvKd7M6-4" edge="1">
          <mxGeometry relative="1" as="geometry">
            <mxPoint x="510" y="428" as="targetPoint" />
          </mxGeometry>
        </mxCell>
        <mxCell id="WZVstMQva_9MUPvKd7M6-28" style="edgeStyle=none;curved=1;rounded=0;orthogonalLoop=1;jettySize=auto;html=1;exitX=1;exitY=1;exitDx=0;exitDy=0;exitPerimeter=0;fontSize=16;startSize=8;endSize=8;strokeWidth=2;endArrow=none;startFill=0;" parent="1" source="WZVstMQva_9MUPvKd7M6-4" edge="1">
          <mxGeometry relative="1" as="geometry">
            <mxPoint x="510" y="625" as="targetPoint" />
          </mxGeometry>
        </mxCell>
        <mxCell id="WZVstMQva_9MUPvKd7M6-4" value="" style="verticalLabelPosition=bottom;shadow=0;dashed=0;align=center;html=1;verticalAlign=top;shape=mxgraph.electrical.transistors.nmos_bulk;pointerEvents=1;strokeWidth=2;fontSize=16;" parent="1" vertex="1">
          <mxGeometry x="450" y="457" width="60" height="120" as="geometry" />
        </mxCell>
        <mxCell id="WZVstMQva_9MUPvKd7M6-6" value="" style="verticalLabelPosition=bottom;shadow=0;dashed=0;align=center;html=1;verticalAlign=top;shape=mxgraph.electrical.transistors.nmos_bulk;pointerEvents=1;flipV=0;flipH=1;strokeWidth=2;fontSize=16;" parent="1" vertex="1">
          <mxGeometry x="615" y="277" width="65" height="120" as="geometry" />
        </mxCell>
        <mxCell id="WZVstMQva_9MUPvKd7M6-34" style="edgeStyle=none;curved=1;rounded=0;orthogonalLoop=1;jettySize=auto;html=1;exitX=1;exitY=1;exitDx=0;exitDy=0;exitPerimeter=0;fontSize=16;startSize=8;endSize=8;strokeWidth=2;endArrow=none;startFill=0;" parent="1" source="WZVstMQva_9MUPvKd7M6-7" edge="1">
          <mxGeometry relative="1" as="geometry">
            <mxPoint x="139.98734177215186" y="624.2278481012657" as="targetPoint" />
          </mxGeometry>
        </mxCell>
        <mxCell id="WZVstMQva_9MUPvKd7M6-35" style="edgeStyle=none;curved=1;rounded=0;orthogonalLoop=1;jettySize=auto;html=1;exitX=1;exitY=0;exitDx=0;exitDy=0;exitPerimeter=0;fontSize=16;startSize=8;endSize=8;strokeWidth=2;endArrow=none;startFill=0;" parent="1" source="WZVstMQva_9MUPvKd7M6-7" edge="1">
          <mxGeometry relative="1" as="geometry">
            <mxPoint x="140" y="386" as="targetPoint" />
          </mxGeometry>
        </mxCell>
        <mxCell id="WZVstMQva_9MUPvKd7M6-7" value="" style="verticalLabelPosition=bottom;shadow=0;dashed=0;align=center;html=1;verticalAlign=top;shape=mxgraph.electrical.transistors.nmos_bulk;pointerEvents=1;flipH=1;strokeWidth=2;fontSize=16;" parent="1" vertex="1">
          <mxGeometry x="140" y="457" width="60" height="120" as="geometry" />
        </mxCell>
        <mxCell id="WZVstMQva_9MUPvKd7M6-15" style="edgeStyle=none;curved=1;rounded=0;orthogonalLoop=1;jettySize=auto;html=1;exitX=1;exitY=1;exitDx=0;exitDy=0;exitPerimeter=0;fontSize=16;startSize=8;endSize=8;endArrow=none;startFill=0;strokeWidth=2;" parent="1" source="WZVstMQva_9MUPvKd7M6-10" edge="1">
          <mxGeometry relative="1" as="geometry">
            <mxPoint x="400" y="283" as="targetPoint" />
          </mxGeometry>
        </mxCell>
        <mxCell id="WZVstMQva_9MUPvKd7M6-21" style="edgeStyle=none;curved=1;rounded=0;orthogonalLoop=1;jettySize=auto;html=1;exitX=1;exitY=0;exitDx=0;exitDy=0;exitPerimeter=0;fontSize=16;startSize=8;endSize=8;endArrow=none;startFill=0;strokeWidth=2;" parent="1" source="WZVstMQva_9MUPvKd7M6-10" edge="1">
          <mxGeometry relative="1" as="geometry">
            <mxPoint x="399.8571428571429" y="60" as="targetPoint" />
          </mxGeometry>
        </mxCell>
        <mxCell id="WZVstMQva_9MUPvKd7M6-10" value="" style="verticalLabelPosition=bottom;shadow=0;dashed=0;align=center;html=1;verticalAlign=top;shape=mxgraph.electrical.transistors.pmos_bulk;pointerEvents=1;flipH=1;strokeWidth=2;fontSize=16;" parent="1" vertex="1">
          <mxGeometry x="400" y="160" width="60" height="100" as="geometry" />
        </mxCell>
        <mxCell id="WZVstMQva_9MUPvKd7M6-18" style="edgeStyle=none;curved=1;rounded=0;orthogonalLoop=1;jettySize=auto;html=1;exitX=1;exitY=1;exitDx=0;exitDy=0;exitPerimeter=0;fontSize=16;startSize=8;endSize=8;endArrow=none;startFill=0;strokeWidth=2;" parent="1" source="WZVstMQva_9MUPvKd7M6-11" edge="1">
          <mxGeometry relative="1" as="geometry">
            <mxPoint x="534.8571428571429" y="210" as="targetPoint" />
          </mxGeometry>
        </mxCell>
        <mxCell id="WZVstMQva_9MUPvKd7M6-20" style="edgeStyle=none;curved=1;rounded=0;orthogonalLoop=1;jettySize=auto;html=1;exitX=1;exitY=0;exitDx=0;exitDy=0;exitPerimeter=0;fontSize=16;startSize=8;endSize=8;endArrow=none;startFill=0;strokeWidth=2;" parent="1" source="WZVstMQva_9MUPvKd7M6-11" edge="1">
          <mxGeometry relative="1" as="geometry">
            <mxPoint x="534.8571428571429" y="60" as="targetPoint" />
          </mxGeometry>
        </mxCell>
        <mxCell id="WZVstMQva_9MUPvKd7M6-11" value="" style="verticalLabelPosition=bottom;shadow=0;dashed=0;align=center;html=1;verticalAlign=top;shape=mxgraph.electrical.transistors.pmos_bulk;pointerEvents=1;flipH=0;strokeWidth=2;fontSize=16;" parent="1" vertex="1">
          <mxGeometry x="475" y="80" width="60" height="100" as="geometry" />
        </mxCell>
        <mxCell id="WZVstMQva_9MUPvKd7M6-19" style="edgeStyle=none;curved=1;rounded=0;orthogonalLoop=1;jettySize=auto;html=1;exitX=1;exitY=0;exitDx=0;exitDy=0;exitPerimeter=0;fontSize=16;startSize=8;endSize=8;endArrow=none;startFill=0;strokeWidth=2;" parent="1" source="WZVstMQva_9MUPvKd7M6-12" edge="1">
          <mxGeometry relative="1" as="geometry">
            <mxPoint x="615" y="60" as="targetPoint" />
          </mxGeometry>
        </mxCell>
        <mxCell id="WZVstMQva_9MUPvKd7M6-12" value="" style="verticalLabelPosition=bottom;shadow=0;dashed=0;align=center;html=1;verticalAlign=top;shape=mxgraph.electrical.transistors.pmos_bulk;pointerEvents=1;flipH=0;strokeWidth=2;fontSize=16;" parent="1" vertex="1">
          <mxGeometry x="555" y="160" width="60" height="100" as="geometry" />
        </mxCell>
        <mxCell id="WZVstMQva_9MUPvKd7M6-13" style="edgeStyle=none;curved=1;rounded=0;orthogonalLoop=1;jettySize=auto;html=1;exitX=0;exitY=0.5;exitDx=0;exitDy=0;exitPerimeter=0;entryX=0;entryY=0.5;entryDx=0;entryDy=0;entryPerimeter=0;fontSize=16;startSize=8;endSize=8;endArrow=none;startFill=0;strokeWidth=2;" parent="1" source="WZVstMQva_9MUPvKd7M6-12" edge="1">
          <mxGeometry relative="1" as="geometry">
            <mxPoint x="435" y="210" as="targetPoint" />
            <Array as="points">
              <mxPoint x="495" y="210" />
            </Array>
          </mxGeometry>
        </mxCell>
        <mxCell id="WZVstMQva_9MUPvKd7M6-16" style="edgeStyle=none;curved=1;rounded=0;orthogonalLoop=1;jettySize=auto;html=1;fontSize=16;startSize=8;endSize=8;endArrow=none;startFill=0;strokeWidth=2;" parent="1" edge="1">
          <mxGeometry relative="1" as="geometry">
            <mxPoint x="470" y="210" as="sourcePoint" />
            <mxPoint x="470" y="260" as="targetPoint" />
            <Array as="points" />
          </mxGeometry>
        </mxCell>
        <mxCell id="WZVstMQva_9MUPvKd7M6-22" style="edgeStyle=none;curved=1;rounded=0;orthogonalLoop=1;jettySize=auto;html=1;fontSize=16;startSize=8;endSize=8;endArrow=none;startFill=0;strokeWidth=2;" parent="1" target="WZVstMQva_9MUPvKd7M6-47" edge="1">
          <mxGeometry relative="1" as="geometry">
            <mxPoint x="615" y="60" as="sourcePoint" />
            <mxPoint x="400" y="60" as="targetPoint" />
            <Array as="points">
              <mxPoint x="525" y="60" />
            </Array>
          </mxGeometry>
        </mxCell>
        <mxCell id="WZVstMQva_9MUPvKd7M6-33" style="edgeStyle=none;curved=1;rounded=0;orthogonalLoop=1;jettySize=auto;html=1;exitX=1;exitY=1;exitDx=0;exitDy=0;exitPerimeter=0;fontSize=16;startSize=8;endSize=8;strokeWidth=2;endArrow=none;startFill=0;" parent="1" source="WZVstMQva_9MUPvKd7M6-24" edge="1">
          <mxGeometry relative="1" as="geometry">
            <mxPoint x="139" y="624" as="targetPoint" />
          </mxGeometry>
        </mxCell>
        <mxCell id="WZVstMQva_9MUPvKd7M6-24" value="" style="verticalLabelPosition=bottom;shadow=0;dashed=0;align=center;html=1;verticalAlign=top;shape=mxgraph.electrical.transistors.nmos_bulk;pointerEvents=1;flipH=1;strokeWidth=2;fontSize=16;" parent="1" vertex="1">
          <mxGeometry x="320" y="517" width="60" height="120" as="geometry" />
        </mxCell>
        <mxCell id="WZVstMQva_9MUPvKd7M6-36" style="edgeStyle=none;curved=1;rounded=0;orthogonalLoop=1;jettySize=auto;html=1;exitX=1;exitY=0;exitDx=0;exitDy=0;exitPerimeter=0;fontSize=16;startSize=8;endSize=8;strokeWidth=2;endArrow=none;startFill=0;" parent="1" source="WZVstMQva_9MUPvKd7M6-25" edge="1">
          <mxGeometry relative="1" as="geometry">
            <mxPoint x="140.3939393939395" y="409.939393939394" as="targetPoint" />
          </mxGeometry>
        </mxCell>
        <mxCell id="WZVstMQva_9MUPvKd7M6-25" value="" style="verticalLabelPosition=bottom;shadow=0;dashed=0;align=center;html=1;verticalAlign=top;shape=mxgraph.electrical.transistors.nmos_bulk;pointerEvents=1;flipH=1;strokeWidth=2;fontSize=16;" parent="1" vertex="1">
          <mxGeometry x="275" y="397" width="60" height="120" as="geometry" />
        </mxCell>
        <mxCell id="WZVstMQva_9MUPvKd7M6-29" style="edgeStyle=none;curved=1;rounded=0;orthogonalLoop=1;jettySize=auto;html=1;exitX=1;exitY=1;exitDx=0;exitDy=0;exitPerimeter=0;fontSize=16;startSize=8;endSize=8;strokeWidth=2;endArrow=none;startFill=0;entryX=0.06;entryY=0.581;entryDx=0;entryDy=0;entryPerimeter=0;" parent="1" source="WZVstMQva_9MUPvKd7M6-24" target="WZVstMQva_9MUPvKd7M6-48" edge="1">
          <mxGeometry relative="1" as="geometry">
            <mxPoint x="510" y="624" as="targetPoint" />
          </mxGeometry>
        </mxCell>
        <mxCell id="WZVstMQva_9MUPvKd7M6-30" style="edgeStyle=none;curved=1;rounded=0;orthogonalLoop=1;jettySize=auto;html=1;exitX=0;exitY=0.5;exitDx=0;exitDy=0;exitPerimeter=0;entryX=0;entryY=0.5;entryDx=0;entryDy=0;entryPerimeter=0;fontSize=16;startSize=8;endSize=8;endArrow=none;startFill=0;strokeWidth=2;" parent="1" source="WZVstMQva_9MUPvKd7M6-4" target="WZVstMQva_9MUPvKd7M6-7" edge="1">
          <mxGeometry relative="1" as="geometry" />
        </mxCell>
        <mxCell id="WZVstMQva_9MUPvKd7M6-31" style="edgeStyle=none;curved=1;rounded=0;orthogonalLoop=1;jettySize=auto;html=1;exitX=1;exitY=0;exitDx=0;exitDy=0;exitPerimeter=0;entryX=0.999;entryY=-0.142;entryDx=0;entryDy=0;entryPerimeter=0;fontSize=16;startSize=8;endSize=8;endArrow=none;startFill=0;strokeWidth=2;" parent="1" source="WZVstMQva_9MUPvKd7M6-24" target="WZVstMQva_9MUPvKd7M6-24" edge="1">
          <mxGeometry relative="1" as="geometry" />
        </mxCell>
        <mxCell id="WZVstMQva_9MUPvKd7M6-32" style="edgeStyle=none;curved=1;rounded=0;orthogonalLoop=1;jettySize=auto;html=1;exitX=1;exitY=1;exitDx=0;exitDy=0;exitPerimeter=0;entryX=0.999;entryY=1.136;entryDx=0;entryDy=0;entryPerimeter=0;fontSize=16;startSize=8;endSize=8;strokeWidth=2;endArrow=none;startFill=0;" parent="1" source="WZVstMQva_9MUPvKd7M6-25" target="WZVstMQva_9MUPvKd7M6-25" edge="1">
          <mxGeometry relative="1" as="geometry" />
        </mxCell>
        <mxCell id="WZVstMQva_9MUPvKd7M6-37" value="" style="shape=step;perimeter=stepPerimeter;whiteSpace=wrap;html=1;fixedSize=1;strokeWidth=2;size=7.666666666666629;fontSize=16;" parent="1" vertex="1">
          <mxGeometry x="312" y="330" width="28" height="14" as="geometry" />
        </mxCell>
        <mxCell id="WZVstMQva_9MUPvKd7M6-38" value="" style="shape=step;perimeter=stepPerimeter;whiteSpace=wrap;html=1;fixedSize=1;strokeWidth=2;size=7.666666666666629;rotation=-180;fontSize=16;" parent="1" vertex="1">
          <mxGeometry x="680" y="330" width="28" height="14" as="geometry" />
        </mxCell>
        <mxCell id="WZVstMQva_9MUPvKd7M6-39" value="" style="shape=step;perimeter=stepPerimeter;whiteSpace=wrap;html=1;fixedSize=1;strokeWidth=2;size=7.666666666666629;fontSize=16;" parent="1" vertex="1">
          <mxGeometry x="680" y="252" width="28" height="14" as="geometry" />
        </mxCell>
        <mxCell id="WZVstMQva_9MUPvKd7M6-40" style="edgeStyle=none;curved=1;rounded=0;orthogonalLoop=1;jettySize=auto;html=1;entryX=1.004;entryY=1.023;entryDx=0;entryDy=0;entryPerimeter=0;fontSize=16;startSize=8;endSize=8;strokeWidth=2;endArrow=none;startFill=0;" parent="1" source="WZVstMQva_9MUPvKd7M6-39" target="WZVstMQva_9MUPvKd7M6-12" edge="1">
          <mxGeometry relative="1" as="geometry" />
        </mxCell>
        <mxCell id="WZVstMQva_9MUPvKd7M6-41" value="" style="shape=step;perimeter=stepPerimeter;whiteSpace=wrap;html=1;fixedSize=1;strokeWidth=2;size=7.666666666666629;rotation=90;fontSize=16;" parent="1" vertex="1">
          <mxGeometry x="126" y="365" width="28" height="14" as="geometry" />
        </mxCell>
        <mxCell id="WZVstMQva_9MUPvKd7M6-42" value="Vin_n" style="text;html=1;align=center;verticalAlign=middle;resizable=0;points=[];autosize=1;strokeColor=none;fillColor=none;fontSize=16;" parent="1" vertex="1">
          <mxGeometry x="252" y="323.5" width="59" height="31" as="geometry" />
        </mxCell>
        <mxCell id="WZVstMQva_9MUPvKd7M6-44" value="Vin_p" style="text;html=1;align=center;verticalAlign=middle;resizable=0;points=[];autosize=1;strokeColor=none;fillColor=none;fontSize=16;" parent="1" vertex="1">
          <mxGeometry x="706.5" y="323.5" width="59" height="31" as="geometry" />
        </mxCell>
        <mxCell id="WZVstMQva_9MUPvKd7M6-45" value="Vout" style="text;html=1;align=center;verticalAlign=middle;resizable=0;points=[];autosize=1;strokeColor=none;fillColor=none;fontSize=16;" parent="1" vertex="1">
          <mxGeometry x="710" y="245.5" width="50" height="31" as="geometry" />
        </mxCell>
        <mxCell id="WZVstMQva_9MUPvKd7M6-46" value="I_bias" style="text;html=1;align=center;verticalAlign=middle;resizable=0;points=[];autosize=1;strokeColor=none;fillColor=none;fontSize=16;" parent="1" vertex="1">
          <mxGeometry x="110.5" y="327" width="61" height="31" as="geometry" />
        </mxCell>
        <mxCell id="WZVstMQva_9MUPvKd7M6-47" value="VDD" style="text;html=1;align=center;verticalAlign=middle;resizable=0;points=[];autosize=1;strokeColor=none;fillColor=none;fontSize=16;" parent="1" vertex="1">
          <mxGeometry x="321" y="48" width="52" height="31" as="geometry" />
        </mxCell>
        <mxCell id="WZVstMQva_9MUPvKd7M6-48" value="VSS" style="text;html=1;align=center;verticalAlign=middle;resizable=0;points=[];autosize=1;strokeColor=none;fillColor=none;fontSize=16;" parent="1" vertex="1">
          <mxGeometry x="539" y="608" width="50" height="31" as="geometry" />
        </mxCell>
        <mxCell id="YHvZj5T6eKGrMUq4xp53-3" value="" style="verticalLabelPosition=bottom;shadow=0;dashed=0;align=center;html=1;verticalAlign=top;shape=mxgraph.electrical.transistors.nmos_bulk;pointerEvents=1;strokeWidth=2;fontSize=16;" parent="1" vertex="1">
          <mxGeometry x="776" y="538" width="60" height="120" as="geometry" />
        </mxCell>
        <mxCell id="YHvZj5T6eKGrMUq4xp53-4" value="" style="verticalLabelPosition=bottom;shadow=0;dashed=0;align=center;html=1;verticalAlign=top;shape=mxgraph.electrical.transistors.pmos_bulk;pointerEvents=1;flipH=0;strokeWidth=2;fontSize=16;" parent="1" vertex="1">
          <mxGeometry x="776" y="438" width="60" height="100" as="geometry" />
        </mxCell>
        <mxCell id="YHvZj5T6eKGrMUq4xp53-5" style="edgeStyle=orthogonalEdgeStyle;rounded=0;orthogonalLoop=1;jettySize=auto;html=1;exitX=1;exitY=1;exitDx=0;exitDy=0;exitPerimeter=0;entryX=1;entryY=0;entryDx=0;entryDy=0;entryPerimeter=0;endArrow=none;startFill=0;strokeWidth=2;fontSize=16;" parent="1" source="YHvZj5T6eKGrMUq4xp53-4" target="YHvZj5T6eKGrMUq4xp53-3" edge="1">
          <mxGeometry relative="1" as="geometry" />
        </mxCell>
        <mxCell id="YHvZj5T6eKGrMUq4xp53-6" style="edgeStyle=orthogonalEdgeStyle;rounded=0;orthogonalLoop=1;jettySize=auto;html=1;exitX=0;exitY=0.5;exitDx=0;exitDy=0;exitPerimeter=0;entryX=0;entryY=0.5;entryDx=0;entryDy=0;entryPerimeter=0;strokeWidth=2;endArrow=none;startFill=0;fontSize=16;" parent="1" source="YHvZj5T6eKGrMUq4xp53-3" target="YHvZj5T6eKGrMUq4xp53-4" edge="1">
          <mxGeometry relative="1" as="geometry" />
        </mxCell>
        <mxCell id="YHvZj5T6eKGrMUq4xp53-7" value="VDD" style="text;html=1;align=center;verticalAlign=middle;resizable=0;points=[];autosize=1;strokeColor=none;fillColor=none;fontSize=16;" parent="1" vertex="1">
          <mxGeometry x="810" y="409" width="52" height="31" as="geometry" />
        </mxCell>
        <mxCell id="YHvZj5T6eKGrMUq4xp53-8" value="VSS" style="text;html=1;align=center;verticalAlign=middle;resizable=0;points=[];autosize=1;strokeColor=none;fillColor=none;fontSize=16;" parent="1" vertex="1">
          <mxGeometry x="811" y="647.14" width="50" height="31" as="geometry" />
        </mxCell>
        <mxCell id="YHvZj5T6eKGrMUq4xp53-9" value="" style="endArrow=none;html=1;rounded=0;strokeWidth=2;fontSize=16;" parent="1" edge="1">
          <mxGeometry width="50" height="50" relative="1" as="geometry">
            <mxPoint x="726" y="543" as="sourcePoint" />
            <mxPoint x="756" y="543" as="targetPoint" />
          </mxGeometry>
        </mxCell>
        <mxCell id="YHvZj5T6eKGrMUq4xp53-10" value="" style="shape=step;perimeter=stepPerimeter;whiteSpace=wrap;html=1;fixedSize=1;strokeWidth=2;size=7.666666666666629;fontSize=16;" parent="1" vertex="1">
          <mxGeometry x="700" y="536.5" width="28" height="14" as="geometry" />
        </mxCell>
        <mxCell id="YHvZj5T6eKGrMUq4xp53-11" value="EN" style="text;html=1;align=center;verticalAlign=middle;resizable=0;points=[];autosize=1;strokeColor=none;fillColor=none;fontSize=16;" parent="1" vertex="1">
          <mxGeometry x="661" y="530" width="40" height="31" as="geometry" />
        </mxCell>
        <mxCell id="YHvZj5T6eKGrMUq4xp53-14" value="" style="endArrow=none;html=1;rounded=0;strokeWidth=2;fontSize=16;" parent="1" edge="1">
          <mxGeometry width="50" height="50" relative="1" as="geometry">
            <mxPoint x="835" y="543" as="sourcePoint" />
            <mxPoint x="865" y="543" as="targetPoint" />
          </mxGeometry>
        </mxCell>
        <mxCell id="YHvZj5T6eKGrMUq4xp53-15" value="EN_N" style="text;html=1;align=center;verticalAlign=middle;resizable=0;points=[];autosize=1;strokeColor=none;fillColor=none;fontSize=16;" parent="1" vertex="1">
          <mxGeometry x="857" y="530" width="61" height="31" as="geometry" />
        </mxCell>
        <mxCell id="YHvZj5T6eKGrMUq4xp53-16" value="EN" style="text;html=1;align=center;verticalAlign=middle;resizable=0;points=[];autosize=1;strokeColor=none;fillColor=none;fontSize=16;" parent="1" vertex="1">
          <mxGeometry x="438" y="116.5" width="40" height="31" as="geometry" />
        </mxCell>
        <mxCell id="YHvZj5T6eKGrMUq4xp53-17" value="EN" style="text;html=1;align=center;verticalAlign=middle;resizable=0;points=[];autosize=1;strokeColor=none;fillColor=none;fontSize=16;" parent="1" vertex="1">
          <mxGeometry x="336" y="443.5" width="40" height="31" as="geometry" />
        </mxCell>
        <mxCell id="YHvZj5T6eKGrMUq4xp53-18" value="EN_N" style="text;html=1;align=center;verticalAlign=middle;resizable=0;points=[];autosize=1;strokeColor=none;fillColor=none;fontSize=16;" parent="1" vertex="1">
          <mxGeometry x="373" y="563.5" width="61" height="31" as="geometry" />
        </mxCell>
        <mxCell id="YHvZj5T6eKGrMUq4xp53-20" value="M2" style="text;html=1;align=center;verticalAlign=middle;whiteSpace=wrap;rounded=0;fontSize=16;" parent="1" vertex="1">
          <mxGeometry x="400" y="165" width="60" height="30" as="geometry" />
        </mxCell>
        <mxCell id="YHvZj5T6eKGrMUq4xp53-21" value="M1" style="text;html=1;align=center;verticalAlign=middle;whiteSpace=wrap;rounded=0;fontSize=16;" parent="1" vertex="1">
          <mxGeometry x="550" y="168" width="60" height="30" as="geometry" />
        </mxCell>
        <mxCell id="YHvZj5T6eKGrMUq4xp53-22" value="M3" style="text;html=1;align=center;verticalAlign=middle;whiteSpace=wrap;rounded=0;fontSize=16;" parent="1" vertex="1">
          <mxGeometry x="340" y="291.5" width="60" height="30" as="geometry" />
        </mxCell>
        <mxCell id="YHvZj5T6eKGrMUq4xp53-23" value="M4" style="text;html=1;align=center;verticalAlign=middle;whiteSpace=wrap;rounded=0;fontSize=16;" parent="1" vertex="1">
          <mxGeometry x="620" y="291.5" width="60" height="30" as="geometry" />
        </mxCell>
        <mxCell id="YHvZj5T6eKGrMUq4xp53-24" value="M5" style="text;html=1;align=center;verticalAlign=middle;whiteSpace=wrap;rounded=0;fontSize=16;" parent="1" vertex="1">
          <mxGeometry x="443" y="476" width="60" height="30" as="geometry" />
        </mxCell>
        <mxCell id="YHvZj5T6eKGrMUq4xp53-25" value="M6" style="text;html=1;align=center;verticalAlign=middle;whiteSpace=wrap;rounded=0;fontSize=16;" parent="1" vertex="1">
          <mxGeometry x="151" y="476" width="60" height="30" as="geometry" />
        </mxCell>
        <mxCell id="YHvZj5T6eKGrMUq4xp53-26" value="M7" style="text;html=1;align=center;verticalAlign=middle;whiteSpace=wrap;rounded=0;fontSize=16;" parent="1" vertex="1">
          <mxGeometry x="283" y="416" width="60" height="30" as="geometry" />
        </mxCell>
        <mxCell id="YHvZj5T6eKGrMUq4xp53-27" value="M8" style="text;html=1;align=center;verticalAlign=middle;whiteSpace=wrap;rounded=0;fontSize=16;" parent="1" vertex="1">
          <mxGeometry x="327" y="538" width="60" height="30" as="geometry" />
        </mxCell>
        <mxCell id="YHvZj5T6eKGrMUq4xp53-28" value="M9" style="text;html=1;align=center;verticalAlign=middle;whiteSpace=wrap;rounded=0;fontSize=16;" parent="1" vertex="1">
          <mxGeometry x="762" y="442" width="60" height="30" as="geometry" />
        </mxCell>
        <mxCell id="YHvZj5T6eKGrMUq4xp53-29" value="M10" style="text;html=1;align=center;verticalAlign=middle;whiteSpace=wrap;rounded=0;fontSize=16;" parent="1" vertex="1">
          <mxGeometry x="768" y="556" width="60" height="30" as="geometry" />
        </mxCell>
        <mxCell id="YHvZj5T6eKGrMUq4xp53-35" value="" style="pointerEvents=1;verticalLabelPosition=bottom;shadow=0;dashed=0;align=center;html=1;verticalAlign=top;shape=mxgraph.electrical.resistors.resistor_2;strokeWidth=2;strokeColor=#FF0000;rotation=90;fontSize=16;" parent="1" vertex="1">
          <mxGeometry x="300" y="534" width="43" height="12" as="geometry" />
        </mxCell>
        <mxCell id="YHvZj5T6eKGrMUq4xp53-36" value="" style="pointerEvents=1;verticalLabelPosition=bottom;shadow=0;dashed=0;align=center;html=1;verticalAlign=top;shape=mxgraph.electrical.resistors.resistor_2;strokeWidth=2;strokeColor=#FF0000;rotation=90;fontSize=16;" parent="1" vertex="1">
          <mxGeometry x="814.5" y="556" width="43" height="12" as="geometry" />
        </mxCell>
        <mxCell id="YHvZj5T6eKGrMUq4xp53-39" value="" style="pointerEvents=1;verticalLabelPosition=bottom;shadow=0;dashed=0;align=center;html=1;verticalAlign=top;shape=mxgraph.electrical.resistors.resistor_2;strokeWidth=2;strokeColor=#FF0000;rotation=90;fontSize=16;" parent="1" vertex="1">
          <mxGeometry x="813.5" y="630" width="43" height="12" as="geometry" />
        </mxCell>
        <mxCell id="YHvZj5T6eKGrMUq4xp53-40" value="" style="pointerEvents=1;verticalLabelPosition=bottom;shadow=0;dashed=0;align=center;html=1;verticalAlign=top;shape=mxgraph.electrical.resistors.resistor_2;strokeWidth=2;strokeColor=#FF0000;rotation=90;fontSize=16;" parent="1" vertex="1">
          <mxGeometry x="253" y="491" width="43" height="12" as="geometry" />
        </mxCell>
        <mxCell id="YHvZj5T6eKGrMUq4xp53-41" value="" style="pointerEvents=1;verticalLabelPosition=bottom;shadow=0;dashed=0;align=center;html=1;verticalAlign=top;shape=mxgraph.electrical.resistors.resistor_2;strokeWidth=2;strokeColor=#FF0000;rotation=90;fontSize=16;" parent="1" vertex="1">
          <mxGeometry x="514" y="80" width="43" height="12" as="geometry" />
        </mxCell>
        <mxCell id="YHvZj5T6eKGrMUq4xp53-46" value="" style="shape=stencil(nZJhDoMgDEZPw3+EEyxuuwdqN4kKBNHp7VdFzVBZliXGpN+Thy0QnralMEAYLQm/EsYSSvGN9WtXi9ZA7nzYCytFVoMnrbO6gpcs3OKQqgQr3UT5jdALfjM9PM21UiiRWrUB+eAoE1LhWjp42bL9uPyOrwz6G3Bgg5Sw+8/a5H8tTzGJtcLTTOTV0+pOFcdVUfbQFk7AhmVd+zF/adOI6QAOYMWN7iE61vWUz93bIDvrHUkoCcuB7aQjCznf830Q6xDzSJN4j2PjmZcd5jun/u7PwRs=);whiteSpace=wrap;html=1;strokeColor=#FF0000;strokeWidth=2;rotation=-30;fontSize=16;" parent="1" vertex="1">
          <mxGeometry x="495.53" y="93.25" width="33" height="29" as="geometry" />
        </mxCell>
        <mxCell id="YHvZj5T6eKGrMUq4xp53-19" value="M11" style="text;html=1;align=center;verticalAlign=middle;whiteSpace=wrap;rounded=0;fontSize=16;" parent="1" vertex="1">
          <mxGeometry x="465" y="86.5" width="60" height="30" as="geometry" />
        </mxCell>
        <mxCell id="YHvZj5T6eKGrMUq4xp53-47" value="" style="pointerEvents=1;verticalLabelPosition=bottom;shadow=0;dashed=0;align=center;html=1;verticalAlign=top;shape=mxgraph.electrical.resistors.resistor_2;strokeWidth=2;strokeColor=#FF0000;rotation=-180;fontSize=16;" parent="1" vertex="1">
          <mxGeometry x="343" y="571" width="43" height="12" as="geometry" />
        </mxCell>
        <mxCell id="YHvZj5T6eKGrMUq4xp53-48" value="" style="shape=stencil(nZJhDoMgDEZPw3+EEyxuuwdqN4kKBNHp7VdFzVBZliXGpN+Thy0QnralMEAYLQm/EsYSSvGN9WtXi9ZA7nzYCytFVoMnrbO6gpcs3OKQqgQr3UT5jdALfjM9PM21UiiRWrUB+eAoE1LhWjp42bL9uPyOrwz6G3Bgg5Sw+8/a5H8tTzGJtcLTTOTV0+pOFcdVUfbQFk7AhmVd+zF/adOI6QAOYMWN7iE61vWUz93bIDvrHUkoCcuB7aQjCznf830Q6xDzSJN4j2PjmZcd5jun/u7PwRs=);whiteSpace=wrap;html=1;strokeWidth=2;strokeColor=#FF0000;rotation=-210;fontSize=16;" parent="1" vertex="1">
          <mxGeometry x="329.8" y="588.25" width="25" height="25.5" as="geometry" />
        </mxCell>
        <mxCell id="YHvZj5T6eKGrMUq4xp53-49" value="" style="pointerEvents=1;verticalLabelPosition=bottom;shadow=0;dashed=0;align=center;html=1;verticalAlign=top;shape=mxgraph.electrical.resistors.resistor_2;strokeWidth=2;strokeColor=#FF0000;rotation=90;fontSize=16;" parent="1" vertex="1">
          <mxGeometry x="306" y="601.75" width="31" height="12" as="geometry" />
        </mxCell>
        <mxCell id="YHvZj5T6eKGrMUq4xp53-52" value="" style="shape=stencil(nZJhDoMgDEZPw3+EEyxuuwdqN4kKBNHp7VdFzVBZliXGpN+Thy0QnralMEAYLQm/EsYSSvGN9WtXi9ZA7nzYCytFVoMnrbO6gpcs3OKQqgQr3UT5jdALfjM9PM21UiiRWrUB+eAoE1LhWjp42bL9uPyOrwz6G3Bgg5Sw+8/a5H8tTzGJtcLTTOTV0+pOFcdVUfbQFk7AhmVd+zF/adOI6QAOYMWN7iE61vWUz93bIDvrHUkoCcuB7aQjCznf830Q6xDzSJN4j2PjmZcd5jun/u7PwRs=);whiteSpace=wrap;html=1;strokeWidth=2;strokeColor=#FF0000;rotation=-40;fontSize=16;" parent="1" vertex="1">
          <mxGeometry x="797.02" y="452.09" width="31" height="29.71" as="geometry" />
        </mxCell>
        <mxCell id="YHvZj5T6eKGrMUq4xp53-55" value="" style="shape=stencil(nZJhDoMgDEZPw3+EEyxuuwdqN4kKBNHp7VdFzVBZliXGpN+Thy0QnralMEAYLQm/EsYSSvGN9WtXi9ZA7nzYCytFVoMnrbO6gpcs3OKQqgQr3UT5jdALfjM9PM21UiiRWrUB+eAoE1LhWjp42bL9uPyOrwz6G3Bgg5Sw+8/a5H8tTzGJtcLTTOTV0+pOFcdVUfbQFk7AhmVd+zF/adOI6QAOYMWN7iE61vWUz93bIDvrHUkoCcuB7aQjCznf830Q6xDzSJN4j2PjmZcd5jun/u7PwRs=);whiteSpace=wrap;html=1;strokeWidth=2;strokeColor=#FF0000;rotation=45;fontSize=16;" parent="1" vertex="1">
          <mxGeometry x="151" y="481.5" width="29" height="31" as="geometry" />
        </mxCell>
        <mxCell id="YHvZj5T6eKGrMUq4xp53-57" value="" style="shape=stencil(nZJhDoMgDEZPw3+EEyxuuwdqN4kKBNHp7VdFzVBZliXGpN+Thy0QnralMEAYLQm/EsYSSvGN9WtXi9ZA7nzYCytFVoMnrbO6gpcs3OKQqgQr3UT5jdALfjM9PM21UiiRWrUB+eAoE1LhWjp42bL9uPyOrwz6G3Bgg5Sw+8/a5H8tTzGJtcLTTOTV0+pOFcdVUfbQFk7AhmVd+zF/adOI6QAOYMWN7iE61vWUz93bIDvrHUkoCcuB7aQjCznf830Q6xDzSJN4j2PjmZcd5jun/u7PwRs=);whiteSpace=wrap;html=1;strokeWidth=2;strokeColor=#FF0000;rotation=-90;fontSize=16;" parent="1" vertex="1">
          <mxGeometry x="233" y="439.5" width="46" height="35" as="geometry" />
        </mxCell>
        <mxCell id="YHvZj5T6eKGrMUq4xp53-59" value="" style="shape=stencil(nZJhDoMgDEZPw3+EEyxuuwdqN4kKBNHp7VdFzVBZliXGpN+Thy0QnralMEAYLQm/EsYSSvGN9WtXi9ZA7nzYCytFVoMnrbO6gpcs3OKQqgQr3UT5jdALfjM9PM21UiiRWrUB+eAoE1LhWjp42bL9uPyOrwz6G3Bgg5Sw+8/a5H8tTzGJtcLTTOTV0+pOFcdVUfbQFk7AhmVd+zF/adOI6QAOYMWN7iE61vWUz93bIDvrHUkoCcuB7aQjCznf830Q6xDzSJN4j2PjmZcd5jun/u7PwRs=);whiteSpace=wrap;html=1;strokeColor=#FF0000;strokeWidth=2;rotation=135;fontSize=16;" parent="1" vertex="1">
          <mxGeometry x="415" y="214" width="28" height="33" as="geometry" />
        </mxCell>
        <mxCell id="YHvZj5T6eKGrMUq4xp53-60" value="" style="pointerEvents=1;verticalLabelPosition=bottom;shadow=0;dashed=0;align=center;html=1;verticalAlign=top;shape=mxgraph.electrical.resistors.resistor_2;strokeWidth=2;strokeColor=#FF0000;rotation=90;fontSize=16;" parent="1" vertex="1">
          <mxGeometry x="814.5" y="519" width="43" height="12" as="geometry" />
        </mxCell>
        <mxCell id="YHvZj5T6eKGrMUq4xp53-61" value="" style="pointerEvents=1;verticalLabelPosition=bottom;shadow=0;dashed=0;align=center;html=1;verticalAlign=top;shape=mxgraph.electrical.resistors.resistor_2;strokeWidth=2;strokeColor=#FF0000;rotation=-180;fontSize=16;" parent="1" vertex="1">
          <mxGeometry x="467" y="124" width="43" height="12" as="geometry" />
        </mxCell>
        <mxCell id="YHvZj5T6eKGrMUq4xp53-62" value="" style="shape=stencil(nZJhDoMgDEZPw3+EEyxuuwdqN4kKBNHp7VdFzVBZliXGpN+Thy0QnralMEAYLQm/EsYSSvGN9WtXi9ZA7nzYCytFVoMnrbO6gpcs3OKQqgQr3UT5jdALfjM9PM21UiiRWrUB+eAoE1LhWjp42bL9uPyOrwz6G3Bgg5Sw+8/a5H8tTzGJtcLTTOTV0+pOFcdVUfbQFk7AhmVd+zF/adOI6QAOYMWN7iE61vWUz93bIDvrHUkoCcuB7aQjCznf830Q6xDzSJN4j2PjmZcd5jun/u7PwRs=);whiteSpace=wrap;html=1;strokeWidth=2;strokeColor=#FF0000;rotation=90;fontSize=16;" parent="1" vertex="1">
          <mxGeometry x="831" y="583" width="37" height="27.25" as="geometry" />
        </mxCell>
        <mxCell id="YHvZj5T6eKGrMUq4xp53-63" value="" style="pointerEvents=1;verticalLabelPosition=bottom;shadow=0;dashed=0;align=center;html=1;verticalAlign=top;shape=mxgraph.electrical.resistors.resistor_2;strokeWidth=2;strokeColor=#FF0000;rotation=90;fontSize=16;" parent="1" vertex="1">
          <mxGeometry x="817.25" y="447.75" width="37.5" height="12" as="geometry" />
        </mxCell>
        <mxCell id="YHvZj5T6eKGrMUq4xp53-64" value="" style="pointerEvents=1;verticalLabelPosition=bottom;shadow=0;dashed=0;align=center;html=1;verticalAlign=top;shape=mxgraph.electrical.resistors.resistor_2;strokeWidth=2;strokeColor=#FF0000;rotation=90;fontSize=16;" parent="1" vertex="1">
          <mxGeometry x="791" y="285.25" width="46.5" height="12" as="geometry" />
        </mxCell>
        <mxCell id="YHvZj5T6eKGrMUq4xp53-65" value="" style="shape=stencil(nZJhDoMgDEZPw3+EEyxuuwdqN4kKBNHp7VdFzVBZliXGpN+Thy0QnralMEAYLQm/EsYSSvGN9WtXi9ZA7nzYCytFVoMnrbO6gpcs3OKQqgQr3UT5jdALfjM9PM21UiiRWrUB+eAoE1LhWjp42bL9uPyOrwz6G3Bgg5Sw+8/a5H8tTzGJtcLTTOTV0+pOFcdVUfbQFk7AhmVd+zF/adOI6QAOYMWN7iE61vWUz93bIDvrHUkoCcuB7aQjCznf830Q6xDzSJN4j2PjmZcd5jun/u7PwRs=);whiteSpace=wrap;html=1;strokeWidth=2;strokeColor=#FF0000;rotation=-90;fontSize=16;" parent="1" vertex="1">
          <mxGeometry x="794.5" y="335.75" width="31" height="31" as="geometry" />
        </mxCell>
        <mxCell id="YHvZj5T6eKGrMUq4xp53-67" value="" style="endArrow=classic;html=1;rounded=0;strokeWidth=3;fontSize=16;" parent="1" edge="1">
          <mxGeometry width="50" height="50" relative="1" as="geometry">
            <mxPoint x="842.5" y="291" as="sourcePoint" />
            <mxPoint x="892.5" y="291" as="targetPoint" />
          </mxGeometry>
        </mxCell>
        <mxCell id="YHvZj5T6eKGrMUq4xp53-68" value="" style="endArrow=classic;html=1;rounded=0;strokeWidth=3;fontSize=16;" parent="1" edge="1">
          <mxGeometry width="50" height="50" relative="1" as="geometry">
            <mxPoint x="840.02" y="348.75" as="sourcePoint" />
            <mxPoint x="890.02" y="348.75" as="targetPoint" />
          </mxGeometry>
        </mxCell>
        <mxCell id="YHvZj5T6eKGrMUq4xp53-69" value="Open Defect" style="text;html=1;align=center;verticalAlign=middle;resizable=0;points=[];autosize=1;strokeColor=none;fillColor=none;fontSize=16;" parent="1" vertex="1">
          <mxGeometry x="896.5" y="279" width="108" height="31" as="geometry" />
        </mxCell>
        <mxCell id="YHvZj5T6eKGrMUq4xp53-70" value="Short Defect" style="text;html=1;align=center;verticalAlign=middle;resizable=0;points=[];autosize=1;strokeColor=none;fillColor=none;fontSize=16;" parent="1" vertex="1">
          <mxGeometry x="896.5" y="337.75" width="107" height="31" as="geometry" />
        </mxCell>
      </root>
    </mxGraphModel>
  </diagram>
</mxfile>
